<?xml version="1.0" standalone="no"?><!DOCTYPE svg PUBLIC "-//W3C//DTD SVG 1.1//EN" "http://www.w3.org/Graphics/SVG/1.1/DTD/svg11.dtd"><svg t="1534232406833" class="icon" style="" viewBox="0 0 1024 1024" version="1.1" xmlns="http://www.w3.org/2000/svg" p-id="1624" xmlns:xlink="http://www.w3.org/1999/xlink" width="200" height="200"><defs><style type="text/css"></style></defs><path d="M256.74496 728.128a39.1552 39.1552 0 0 0-0.00768 0.7424v0.05888l0.00384 0.4864-0.00384 0.96h0.02688c0.7872 21.3376 18.93248 38.3616 41.25696 38.3616 22.3232 0 40.52864-17.024 41.3184-38.3616l0.00256-0.08448a39.09376 39.09376 0 0 0 0.00384-2.62144l0.18048-135.37792V415.3664c0-1.95328 0.73984-3.7888 2.1568-5.15072 2.9568-2.90176 7.76064-2.96064 10.78016-0.11904l89.3184 83.54816 0.6656-0.67328c4.68992 3.59552 10.66496 5.74848 17.17248 5.74848 15.07584 0 27.296-11.55968 27.296-25.82144 0-9.76128-5.72672-18.2592-14.176-22.64832L330.90304 272.192c-7.82336-9.71008-19.83488-15.45472-32.64768-15.45472-22.6688 0-41.08672 17.64608-41.08672 39.4944v296.06016l-0.42368 135.83616z m432.73216-113.99168a37.38496 37.38496 0 0 0-0.416 5.57568c0 21.15328 17.87008 38.36288 39.83744 38.36288 20.99584 0 38.16192-15.584 39.72352-35.41248h0.1152v-2.93248a41.7472 41.7472 0 0 0 0-0.03584V295.872c0.05888-11.95776-5.4336-23.2128-14.88256-30.656-17.06752-13.42464-41.87136-10.6112-55.39584 6.3296L496.4032 524.13184c-5.7728 4.18048-9.48608 10.73152-9.48608 18.08768-0.06016 12.6592 10.84032 22.8992 24.31488 22.8992 7.0784 0 13.44512-2.82496 17.89568-7.3344l0.95744 0.69248L676.9024 412.16896a7.26528 7.26528 0 0 1 5.13792-2.11072c4.07552 0 7.32288 3.2832 7.32288 7.26912l0.11392 196.80896zM512 1024C229.23008 1024 0 794.76992 0 512S229.23008 0 512 0s512 229.23008 512 512-229.23008 512-512 512z m216.8704-255.26272c22.0096 0 39.86688-17.7984 39.86688-39.808 0-22.01088-17.7984-39.86816-39.808-39.86816-22.01088 0-39.86816 17.79712-39.86816 39.808v0.06016c0 22.0096 17.79712 39.808 39.808 39.808z" fill="#FFFFFF" p-id="1625"></path></svg>