<?xml version="1.0" standalone="no"?><!DOCTYPE svg PUBLIC "-//W3C//DTD SVG 1.1//EN" "http://www.w3.org/Graphics/SVG/1.1/DTD/svg11.dtd"><svg t="1632623278866" class="icon" viewBox="0 0 1024 1024" version="1.1" xmlns="http://www.w3.org/2000/svg" p-id="14448" xmlns:xlink="http://www.w3.org/1999/xlink" width="200" height="200"><defs><style type="text/css"></style></defs><path d="M446.577778 329.955556c-8.533333-8.533333-22.755556-8.533333-31.288889 0s-8.533333 22.755556 0 31.288888l150.755555 150.755556-150.755555 150.755556c-8.533333 8.533333-8.533333 22.755556 0 31.288888s22.755556 8.533333 31.288889 0l162.133333-162.133333c5.688889-5.688889 5.688889-11.377778 5.688889-19.911111 0-5.688889 0-14.222222-5.688889-19.911111l-162.133333-162.133333z" fill="#1890FF" p-id="14449"></path><path d="M512 170.666667C324.266667 170.666667 170.666667 324.266667 170.666667 512s153.6 341.333333 341.333333 341.333333 341.333333-153.6 341.333333-341.333333S699.733333 170.666667 512 170.666667z m0 640c-164.977778 0-298.666667-133.688889-298.666667-298.666667S347.022222 213.333333 512 213.333333 810.666667 347.022222 810.666667 512 676.977778 810.666667 512 810.666667z" fill="#1890FF" p-id="14450"></path><path d="M512 213.333333C347.022222 213.333333 213.333333 347.022222 213.333333 512S347.022222 810.666667 512 810.666667 810.666667 676.977778 810.666667 512 676.977778 213.333333 512 213.333333z m96.711111 318.577778l-162.133333 162.133333c-8.533333 8.533333-22.755556 8.533333-31.288889 0s-8.533333-22.755556 0-31.288888l150.755555-150.755556-150.755555-150.755556c-8.533333-8.533333-8.533333-22.755556 0-31.288888s22.755556-8.533333 31.288889 0l162.133333 162.133333c5.688889 5.688889 5.688889 11.377778 5.688889 19.911111 0 5.688889 0 14.222222-5.688889 19.911111z" fill="#FFFFFF" p-id="14451"></path></svg>